<svg width="300" height="43" viewBox="0 0 300 43" fill="none" xmlns="http://www.w3.org/2000/svg">
<path d="M265.191 14.7109C264.363 15.7656 263.395 16.293 262.285 16.293C261.043 16.293 260.055 15.7695 259.32 14.7227C258.586 13.6758 258.219 12.3047 258.219 10.6094C258.219 8.82812 258.617 7.39844 259.414 6.32031C260.219 5.24219 261.312 4.70312 262.695 4.70312C264.133 4.70312 265.254 5.32812 266.059 6.57812C266.871 7.82031 267.277 9.54297 267.277 11.7461V12.3906C267.277 14.2812 267.133 15.8125 266.844 16.9844C266.562 18.1562 266.145 19.1016 265.59 19.8203C265.035 20.5391 264.328 21.0859 263.469 21.4609C262.609 21.8281 261.535 22.0117 260.246 22.0117V20.1836H260.609C262.078 20.1523 263.191 19.707 263.949 18.8477C264.715 17.9805 265.129 16.6016 265.191 14.7109ZM262.637 14.5C263.137 14.5 263.625 14.293 264.102 13.8789C264.578 13.457 264.949 12.9062 265.215 12.2266V11.3125C265.215 9.89844 264.969 8.74609 264.477 7.85547C263.984 6.95703 263.391 6.50781 262.695 6.50781C261.945 6.50781 261.348 6.87891 260.902 7.62109C260.465 8.35547 260.246 9.3125 260.246 10.4922C260.246 11.6719 260.461 12.6367 260.891 13.3867C261.32 14.1289 261.902 14.5 262.637 14.5ZM271.674 13.4453L272.413 4.9375H279.83V6.94141H274.159L273.76 11.5938C274.463 11.1016 275.221 10.8555 276.034 10.8555C277.362 10.8555 278.405 11.3711 279.163 12.4023C279.92 13.4336 280.299 14.8203 280.299 16.5625C280.299 18.3281 279.885 19.7148 279.057 20.7227C278.237 21.7305 277.108 22.2344 275.67 22.2344C274.389 22.2344 273.346 21.8164 272.541 20.9805C271.737 20.1445 271.276 18.9883 271.159 17.5117H273.104C273.221 18.4883 273.498 19.2266 273.936 19.7266C274.381 20.2188 274.959 20.4648 275.67 20.4648C276.475 20.4648 277.104 20.1172 277.557 19.4219C278.01 18.7188 278.237 17.7734 278.237 16.5859C278.237 15.4688 277.991 14.5586 277.498 13.8555C277.014 13.1523 276.358 12.8008 275.53 12.8008C274.842 12.8008 274.291 12.9805 273.877 13.3398L273.327 13.8906L271.674 13.4453ZM283.173 8.21875C283.173 7.20312 283.446 6.36328 283.993 5.69922C284.548 5.02734 285.266 4.69141 286.149 4.69141C287.024 4.69141 287.739 5.01953 288.294 5.67578C288.856 6.33203 289.138 7.19531 289.138 8.26562V9.12109C289.138 10.1445 288.86 10.9844 288.305 11.6406C287.759 12.2969 287.048 12.625 286.173 12.625C285.298 12.625 284.579 12.2969 284.016 11.6406C283.454 10.9844 283.173 10.1211 283.173 9.05078V8.21875ZM284.684 9.12109C284.684 9.74609 284.821 10.2539 285.095 10.6445C285.368 11.0273 285.727 11.2188 286.173 11.2188C286.602 11.2188 286.95 11.0312 287.216 10.6562C287.489 10.2734 287.626 9.74609 287.626 9.07422V8.21875C287.626 7.58594 287.489 7.07813 287.216 6.69531C286.942 6.30469 286.587 6.10938 286.149 6.10938C285.704 6.10938 285.348 6.30469 285.083 6.69531C284.817 7.08594 284.684 7.60547 284.684 8.25391V9.12109ZM290.063 17.8164C290.063 16.793 290.341 15.9531 290.895 15.2969C291.45 14.6328 292.165 14.3008 293.04 14.3008C293.915 14.3008 294.634 14.6289 295.196 15.2852C295.759 15.9414 296.04 16.8125 296.04 17.8984V18.7305C296.04 19.7617 295.759 20.6055 295.196 21.2617C294.634 21.918 293.923 22.2461 293.063 22.2461C292.188 22.2461 291.47 21.918 290.907 21.2617C290.345 20.6055 290.063 19.7422 290.063 18.6719V17.8164ZM291.575 18.7305C291.575 19.3633 291.712 19.875 291.985 20.2656C292.259 20.6484 292.618 20.8398 293.063 20.8398C293.501 20.8398 293.852 20.6445 294.118 20.2539C294.384 19.8633 294.516 19.3438 294.516 18.6953V17.8164C294.516 17.1836 294.38 16.6758 294.106 16.293C293.833 15.9102 293.477 15.7188 293.04 15.7188C292.61 15.7188 292.259 15.9102 291.985 16.293C291.712 16.668 291.575 17.1875 291.575 17.8516V18.7305ZM286.595 20.7109L285.458 19.9375L292.454 6.60156L293.602 7.375L286.595 20.7109Z" fill="#242121"/>
<path d="M240.34 9.23264C236.296 12.299 234.898 15.0469 226.237 16.5457C215.576 18.392 204.963 13.9867 199.709 10.3747C197.897 9.12805 193.5 8.88833 191.807 10.3747C184.385 16.89 167.949 15.299 160.936 9.01111C159.212 7.46431 153.381 7.74041 152.664 9.51004C148.723 19.2573 131.029 20.2889 119.178 13.2241C120.472 11.3219 113.724 10.0272 111.885 11.889C101.937 21.9605 82.5158 20.8353 71.2436 11.8475C69.2872 10.2877 64.9044 10.8347 63.6405 12.3061C54.4795 22.9759 40.2108 17.9002 32.2038 10.556C30.6444 9.1248 26.1969 9.62047 25.2567 10.975C20.881 17.283 13.672 18.4608 1.52718 20.0927C-0.759914 20.4007 -0.406646 22.2327 2.10846 22.078C16.0239 21.2218 23.6241 20.0791 29.3116 15.2958C40.9962 23.7177 57.3084 25.438 68.2541 16.5762C82.4468 24.7767 105.246 25.7115 116.542 15.9552C129.09 23.8334 150.132 23.4455 158.559 14.8605C169.43 20.7794 185.252 21.611 196.199 14.9872C212.49 22.5477 245.809 24.2401 246.997 10.0668C247.145 8.37641 242.128 7.87554 240.34 9.23264Z" fill="#00B2A0"/>
<path d="M7.41699 39H6.63086V34.2354H1.95508V39H1.17578V29.0469H1.95508V33.5107H6.63086V29.0469H7.41699V39ZM14.1352 39C14.0668 38.763 14.0212 38.4212 13.9984 37.9746C13.7706 38.3438 13.4766 38.6309 13.1166 38.8359C12.7611 39.0365 12.3738 39.1367 11.9545 39.1367C11.3165 39.1367 10.8197 38.9567 10.4643 38.5967C10.1088 38.2367 9.93106 37.724 9.93106 37.0586C9.93106 36.334 10.1771 35.7598 10.6693 35.3359C11.1661 34.9121 11.8497 34.6979 12.7201 34.6934H13.9916V33.6611C13.9916 33.1325 13.8594 32.7542 13.5951 32.5264C13.3354 32.2939 12.9525 32.1777 12.4467 32.1777C11.9773 32.1777 11.5922 32.3145 11.2914 32.5879C10.9906 32.8613 10.8402 33.2145 10.8402 33.6475L10.0814 33.6406C10.0814 33.0345 10.3093 32.5218 10.765 32.1025C11.2208 31.6787 11.7927 31.4668 12.4809 31.4668C13.2237 31.4668 13.7865 31.6536 14.1693 32.0273C14.5521 32.401 14.7436 32.9456 14.7436 33.6611V37.291C14.7436 38.0156 14.8096 38.5579 14.9418 38.918V39H14.1352ZM12.0502 38.4053C12.4968 38.4053 12.891 38.2891 13.2328 38.0566C13.5792 37.8242 13.8321 37.5143 13.9916 37.127V35.3291H12.7885C12.0958 35.3382 11.574 35.4932 11.223 35.7939C10.8721 36.0902 10.6967 36.4912 10.6967 36.9971C10.6967 37.9359 11.1479 38.4053 12.0502 38.4053ZM19.2742 37.749L21.0379 31.6035H21.8514L19.2469 40.1826L19.1033 40.5928C18.7524 41.5225 18.2146 41.9873 17.49 41.9873C17.3169 41.9873 17.1346 41.9554 16.9432 41.8916L16.9363 41.1943C17.0411 41.2262 17.1574 41.2422 17.285 41.2422C17.6131 41.2422 17.882 41.1442 18.0916 40.9482C18.3012 40.7523 18.4744 40.4355 18.6111 39.998L18.9256 38.9521L16.6014 31.6035H17.4354L19.2742 37.749ZM28.2482 39H27.4826V35.9238C26.9449 36.1517 26.4162 36.2656 25.8967 36.2656C25.0673 36.2656 24.4634 36.0446 24.0852 35.6025C23.7115 35.1559 23.5223 34.4609 23.5178 33.5176V31.6035H24.2766V33.5723C24.2857 34.2832 24.4133 34.7913 24.6594 35.0967C24.91 35.402 25.3225 35.5547 25.8967 35.5547C26.4162 35.5365 26.9449 35.4225 27.4826 35.2129V31.6035H28.2482V39ZM35.0074 31.6035H35.7662V39H35.0074V32.9502L31.7467 39H30.9879V31.6035H31.7467V37.6602L35.0074 31.6035ZM43.291 31.6035V39H42.5322V32.3213H40.0713L39.9619 35.0625C39.9027 36.5117 39.7386 37.5257 39.4697 38.1045C39.2054 38.6787 38.7747 38.9772 38.1777 39H37.8291V38.2549L38.0479 38.248C38.4398 38.2298 38.7178 38.002 38.8818 37.5645C39.0459 37.1224 39.1553 36.3454 39.21 35.2334L39.3398 31.6035H43.291ZM50.057 31.6035H50.8158V39H50.057V32.9502L46.7963 39H46.0375V31.6035H46.7963V37.6602L50.057 31.6035ZM55.8387 38.4326C56.3673 38.4326 56.7729 38.2845 57.0555 37.9883C57.338 37.6921 57.4907 37.266 57.5135 36.71H58.2449C58.2085 37.4665 57.9669 38.0612 57.5203 38.4941C57.0737 38.9225 56.5132 39.1367 55.8387 39.1367C54.9591 39.1367 54.2938 38.8564 53.8426 38.2959C53.396 37.7308 53.1681 36.8945 53.159 35.7871V34.8848C53.159 33.7546 53.3823 32.9023 53.8289 32.3281C54.2801 31.7539 54.9477 31.4668 55.8318 31.4668C56.5656 31.4668 57.1443 31.6992 57.5682 32.1641C57.992 32.6243 58.2176 33.2692 58.2449 34.0986H57.5135C57.4907 33.488 57.3357 33.0163 57.0486 32.6836C56.7615 32.3464 56.3559 32.1777 55.8318 32.1777C55.1756 32.1777 54.6925 32.3988 54.3826 32.8408C54.0773 33.2829 53.9246 33.9619 53.9246 34.8779V35.7188C53.9246 36.6667 54.0796 37.3571 54.3895 37.79C54.6993 38.2184 55.1824 38.4326 55.8387 38.4326ZM61.2922 34.2832H63.0217C63.7235 34.2832 64.2818 34.4928 64.6965 34.9121C65.1112 35.3314 65.3186 35.9033 65.3186 36.6279C65.3186 37.348 65.1112 37.9245 64.6965 38.3574C64.2863 38.7858 63.7281 39 63.0217 39H60.5402V31.6035H61.2922V34.2832ZM61.2922 34.9941V38.2959H63.0354C63.5139 38.2959 63.8876 38.1478 64.1564 37.8516C64.4253 37.5553 64.5598 37.1543 64.5598 36.6484C64.5598 36.1471 64.423 35.7461 64.1496 35.4453C63.8762 35.1445 63.507 34.9941 63.0422 34.9941H61.2922ZM73.1221 35.623H72.2129V39H71.4473V31.6035H72.2129V34.8779H73.1084L75.3506 31.6035H76.2939L73.7441 35.1787L76.5605 39H75.5693L73.1221 35.623ZM82.3148 39C82.2465 38.763 82.2009 38.4212 82.1781 37.9746C81.9503 38.3438 81.6563 38.6309 81.2963 38.8359C80.9408 39.0365 80.5534 39.1367 80.1342 39.1367C79.4962 39.1367 78.9994 38.9567 78.6439 38.5967C78.2885 38.2367 78.1107 37.724 78.1107 37.0586C78.1107 36.334 78.3568 35.7598 78.849 35.3359C79.3458 34.9121 80.0294 34.6979 80.8998 34.6934H82.1713V33.6611C82.1713 33.1325 82.0391 32.7542 81.7748 32.5264C81.515 32.2939 81.1322 32.1777 80.6264 32.1777C80.157 32.1777 79.7719 32.3145 79.4711 32.5879C79.1703 32.8613 79.0199 33.2145 79.0199 33.6475L78.2611 33.6406C78.2611 33.0345 78.489 32.5218 78.9447 32.1025C79.4005 31.6787 79.9724 31.4668 80.6605 31.4668C81.4034 31.4668 81.9662 31.6536 82.349 32.0273C82.7318 32.401 82.9232 32.9456 82.9232 33.6611V37.291C82.9232 38.0156 82.9893 38.5579 83.1215 38.918V39H82.3148ZM80.2299 38.4053C80.6765 38.4053 81.0707 38.2891 81.4125 38.0566C81.7589 37.8242 82.0118 37.5143 82.1713 37.127V35.3291H80.9682C80.2755 35.3382 79.7536 35.4932 79.4027 35.7939C79.0518 36.0902 78.8764 36.4912 78.8764 36.9971C78.8764 37.9359 79.3275 38.4053 80.2299 38.4053ZM89.9764 32.3145H87.7478V39H86.9891V32.3145H84.8426V31.6035H89.9764V32.3145ZM95.7648 39C95.6965 38.763 95.6509 38.4212 95.6281 37.9746C95.4003 38.3438 95.1063 38.6309 94.7463 38.8359C94.3908 39.0365 94.0035 39.1367 93.5842 39.1367C92.9462 39.1367 92.4494 38.9567 92.0939 38.5967C91.7385 38.2367 91.5607 37.724 91.5607 37.0586C91.5607 36.334 91.8068 35.7598 92.299 35.3359C92.7958 34.9121 93.4794 34.6979 94.3498 34.6934H95.6213V33.6611C95.6213 33.1325 95.4891 32.7542 95.2248 32.5264C94.965 32.2939 94.5822 32.1777 94.0764 32.1777C93.607 32.1777 93.2219 32.3145 92.9211 32.5879C92.6203 32.8613 92.4699 33.2145 92.4699 33.6475L91.7111 33.6406C91.7111 33.0345 91.939 32.5218 92.3947 32.1025C92.8505 31.6787 93.4224 31.4668 94.1105 31.4668C94.8534 31.4668 95.4162 31.6536 95.799 32.0273C96.1818 32.401 96.3732 32.9456 96.3732 33.6611V37.291C96.3732 38.0156 96.4393 38.5579 96.5715 38.918V39H95.7648ZM93.6799 38.4053C94.1265 38.4053 94.5207 38.2891 94.8625 38.0566C95.2089 37.8242 95.4618 37.5143 95.6213 37.127V35.3291H94.4182C93.7255 35.3382 93.2036 35.4932 92.8527 35.7939C92.5018 36.0902 92.3264 36.4912 92.3264 36.9971C92.3264 37.9359 92.7775 38.4053 93.6799 38.4053ZM103.426 32.3145H101.198V39H100.439V32.3145H98.2926V31.6035H103.426V32.3145ZM106.248 34.2832H107.978C108.679 34.2832 109.238 34.4928 109.652 34.9121C110.067 35.3314 110.274 35.9033 110.274 36.6279C110.274 37.348 110.067 37.9245 109.652 38.3574C109.242 38.7858 108.684 39 107.978 39H105.496V31.6035H106.248V34.2832ZM106.248 34.9941V38.2959H107.991C108.47 38.2959 108.843 38.1478 109.112 37.8516C109.381 37.5553 109.516 37.1543 109.516 36.6484C109.516 36.1471 109.379 35.7461 109.105 35.4453C108.832 35.1445 108.463 34.9941 107.998 34.9941H106.248ZM114.942 38.4326C115.47 38.4326 115.876 38.2845 116.159 37.9883C116.441 37.6921 116.594 37.266 116.617 36.71H117.348C117.312 37.4665 117.07 38.0612 116.623 38.4941C116.177 38.9225 115.616 39.1367 114.942 39.1367C114.062 39.1367 113.397 38.8564 112.946 38.2959C112.499 37.7308 112.271 36.8945 112.262 35.7871V34.8848C112.262 33.7546 112.485 32.9023 112.932 32.3281C113.383 31.7539 114.051 31.4668 114.935 31.4668C115.669 31.4668 116.247 31.6992 116.671 32.1641C117.095 32.6243 117.321 33.2692 117.348 34.0986H116.617C116.594 33.488 116.439 33.0163 116.152 32.6836C115.865 32.3464 115.459 32.1777 114.935 32.1777C114.279 32.1777 113.796 32.3988 113.486 32.8408C113.18 33.2829 113.028 33.9619 113.028 34.8779V35.7188C113.028 36.6667 113.183 37.3571 113.493 37.79C113.802 38.2184 114.286 38.4326 114.942 38.4326ZM124.135 31.6035V39H123.376V36.0264H121.53L120.006 39H119.172L120.744 35.917C120.311 35.7712 119.981 35.5137 119.753 35.1445C119.525 34.7708 119.411 34.3288 119.411 33.8184C119.411 33.1484 119.614 32.613 120.019 32.2119C120.425 31.8063 120.979 31.6035 121.68 31.6035H124.135ZM120.17 33.832C120.17 34.2695 120.284 34.625 120.512 34.8984C120.744 35.1719 121.063 35.3109 121.469 35.3154H123.376V32.3145H121.66C121.195 32.3145 120.831 32.4535 120.566 32.7314C120.302 33.0094 120.17 33.3763 120.17 33.832Z" fill="#242121"/>
</svg>
