<svg width="253" height="43" viewBox="0 0 253 43" fill="none" xmlns="http://www.w3.org/2000/svg">
<path d="M220.148 9.39062C220.148 10.2422 219.957 11 219.574 11.6641C219.199 12.3281 218.691 12.8477 218.051 13.2227C218.809 13.6133 219.402 14.1758 219.832 14.9102C220.262 15.6367 220.477 16.4648 220.477 17.3945C220.477 18.8633 220.059 20.0391 219.223 20.9219C218.395 21.7969 217.293 22.2344 215.918 22.2344C214.543 22.2344 213.438 21.7969 212.602 20.9219C211.773 20.0391 211.359 18.8633 211.359 17.3945C211.359 16.457 211.57 15.6211 211.992 14.8867C212.422 14.1445 213.004 13.5859 213.738 13.2109C213.098 12.8359 212.594 12.3203 212.227 11.6641C211.859 11 211.676 10.2422 211.676 9.39062C211.676 7.95312 212.062 6.8125 212.836 5.96875C213.617 5.125 214.645 4.70312 215.918 4.70312C217.184 4.70312 218.203 5.12109 218.977 5.95703C219.758 6.79297 220.148 7.9375 220.148 9.39062ZM218.402 17.3477C218.402 16.3711 218.172 15.5898 217.711 15.0039C217.25 14.4102 216.645 14.1133 215.895 14.1133C215.129 14.1133 214.523 14.4102 214.078 15.0039C213.641 15.5977 213.422 16.3789 213.422 17.3477C213.422 18.332 213.637 19.0977 214.066 19.6445C214.504 20.1914 215.121 20.4648 215.918 20.4648C216.715 20.4648 217.328 20.1914 217.758 19.6445C218.188 19.0977 218.402 18.332 218.402 17.3477ZM218.086 9.42578C218.086 8.55859 217.883 7.85156 217.477 7.30469C217.07 6.75781 216.551 6.48438 215.918 6.48438C215.254 6.48438 214.727 6.75391 214.336 7.29297C213.945 7.83203 213.75 8.54297 213.75 9.42578C213.75 10.3164 213.949 11.0234 214.348 11.5469C214.746 12.0703 215.27 12.332 215.918 12.332C216.582 12.332 217.109 12.0664 217.5 11.5352C217.891 11.0039 218.086 10.3008 218.086 9.42578ZM224.674 13.4453L225.413 4.9375H232.83V6.94141H227.159L226.76 11.5938C227.463 11.1016 228.221 10.8555 229.034 10.8555C230.362 10.8555 231.405 11.3711 232.163 12.4023C232.92 13.4336 233.299 14.8203 233.299 16.5625C233.299 18.3281 232.885 19.7148 232.057 20.7227C231.237 21.7305 230.108 22.2344 228.67 22.2344C227.389 22.2344 226.346 21.8164 225.541 20.9805C224.737 20.1445 224.276 18.9883 224.159 17.5117H226.104C226.221 18.4883 226.498 19.2266 226.936 19.7266C227.381 20.2188 227.959 20.4648 228.67 20.4648C229.475 20.4648 230.104 20.1172 230.557 19.4219C231.01 18.7188 231.237 17.7734 231.237 16.5859C231.237 15.4688 230.991 14.5586 230.498 13.8555C230.014 13.1523 229.358 12.8008 228.53 12.8008C227.842 12.8008 227.291 12.9805 226.877 13.3398L226.327 13.8906L224.674 13.4453ZM236.173 8.21875C236.173 7.20312 236.446 6.36328 236.993 5.69922C237.548 5.02734 238.266 4.69141 239.149 4.69141C240.024 4.69141 240.739 5.01953 241.294 5.67578C241.856 6.33203 242.138 7.19531 242.138 8.26562V9.12109C242.138 10.1445 241.86 10.9844 241.305 11.6406C240.759 12.2969 240.048 12.625 239.173 12.625C238.298 12.625 237.579 12.2969 237.016 11.6406C236.454 10.9844 236.173 10.1211 236.173 9.05078V8.21875ZM237.684 9.12109C237.684 9.74609 237.821 10.2539 238.095 10.6445C238.368 11.0273 238.727 11.2188 239.173 11.2188C239.602 11.2188 239.95 11.0312 240.216 10.6562C240.489 10.2734 240.626 9.74609 240.626 9.07422V8.21875C240.626 7.58594 240.489 7.07813 240.216 6.69531C239.942 6.30469 239.587 6.10938 239.149 6.10938C238.704 6.10938 238.348 6.30469 238.083 6.69531C237.817 7.08594 237.684 7.60547 237.684 8.25391V9.12109ZM243.063 17.8164C243.063 16.793 243.341 15.9531 243.895 15.2969C244.45 14.6328 245.165 14.3008 246.04 14.3008C246.915 14.3008 247.634 14.6289 248.196 15.2852C248.759 15.9414 249.04 16.8125 249.04 17.8984V18.7305C249.04 19.7617 248.759 20.6055 248.196 21.2617C247.634 21.918 246.923 22.2461 246.063 22.2461C245.188 22.2461 244.47 21.918 243.907 21.2617C243.345 20.6055 243.063 19.7422 243.063 18.6719V17.8164ZM244.575 18.7305C244.575 19.3633 244.712 19.875 244.985 20.2656C245.259 20.6484 245.618 20.8398 246.063 20.8398C246.501 20.8398 246.852 20.6445 247.118 20.2539C247.384 19.8633 247.516 19.3438 247.516 18.6953V17.8164C247.516 17.1836 247.38 16.6758 247.106 16.293C246.833 15.9102 246.477 15.7188 246.04 15.7188C245.61 15.7188 245.259 15.9102 244.985 16.293C244.712 16.668 244.575 17.1875 244.575 17.8516V18.7305ZM239.595 20.7109L238.458 19.9375L245.454 6.60156L246.602 7.375L239.595 20.7109Z" fill="#242121"/>
<path d="M194.607 9.23264C191.333 12.299 190.201 15.0469 183.188 16.5457C174.555 18.392 165.962 13.9867 161.708 10.3747C160.24 9.12805 156.68 8.88833 155.309 10.3747C149.3 16.89 135.991 15.299 130.312 9.01111C128.916 7.46431 124.195 7.74041 123.615 9.51004C120.424 19.2573 106.096 20.2889 96.5007 13.2241C97.548 11.3219 92.0846 10.0272 90.5951 11.889C82.5402 21.9605 66.8144 20.8353 57.6871 11.8475C56.103 10.2877 52.5542 10.8347 51.5308 12.3061C44.1129 22.9759 32.5594 17.9002 26.076 10.556C24.8133 9.1248 21.212 9.62047 20.4508 10.975C16.9077 17.283 11.0705 18.4608 1.23659 20.0927C-0.615315 20.4007 -0.329268 22.2327 1.70725 22.078C12.9748 21.2218 19.1288 20.0791 23.734 15.2958C33.1953 23.7177 46.4036 25.438 55.2665 16.5762C66.7586 24.7767 85.2194 25.7115 94.3661 15.9552C104.526 23.8334 121.565 23.4455 128.388 14.8605C137.19 20.7794 150.002 21.611 158.866 14.9872C172.057 22.5477 199.036 24.2401 199.997 10.0668C200.117 8.37641 196.055 7.87554 194.607 9.23264Z" fill="#00B2A0"/>
<path d="M7.38965 39H6.61035V29.7852H1.98926V39H1.20996V29.0469H7.38965V39ZM15.2699 35.6504C15.2699 36.7897 15.0717 37.6556 14.6752 38.248C14.2787 38.8405 13.6863 39.1367 12.8979 39.1367C12.0411 39.1367 11.4008 38.7949 10.977 38.1113V41.8438H10.225V31.6035H10.9223L10.9564 32.6152C11.3939 31.8496 12.0342 31.4668 12.8773 31.4668C13.6749 31.4668 14.2719 31.7493 14.6684 32.3145C15.0648 32.8796 15.2654 33.7432 15.2699 34.9053V35.6504ZM14.5111 34.96C14.5111 34.012 14.363 33.3148 14.0668 32.8682C13.7751 32.4215 13.3171 32.1982 12.6928 32.1982C11.8907 32.1982 11.3188 32.6061 10.977 33.4219V37.3184C11.3188 38.0612 11.8952 38.4326 12.7064 38.4326C13.3171 38.4326 13.7683 38.2093 14.06 37.7627C14.3562 37.3161 14.5066 36.6279 14.5111 35.6982V34.96ZM21.7078 31.6035H22.4666V39H21.7078V32.9502L18.4471 39H17.6883V31.6035H18.4471V37.6602L21.7078 31.6035ZM27.592 39.1367C26.7215 39.1367 26.0402 38.8519 25.548 38.2822C25.0559 37.7126 24.8052 36.9014 24.7961 35.8486V34.9463C24.7961 33.8617 25.0331 33.0117 25.507 32.3965C25.981 31.7767 26.6327 31.4668 27.4621 31.4668C28.2642 31.4668 28.8749 31.7288 29.2941 32.2529C29.718 32.777 29.9344 33.5791 29.9436 34.6592V35.3701H25.548V35.7871C25.548 36.6348 25.7281 37.2887 26.0881 37.749C26.4527 38.2093 26.9654 38.4395 27.6262 38.4395C28.3553 38.4395 28.9455 38.1729 29.3967 37.6396L29.7932 38.1455C29.3101 38.8063 28.5764 39.1367 27.592 39.1367ZM27.4621 32.1777C26.8651 32.1777 26.4048 32.3896 26.0812 32.8135C25.7622 33.2327 25.5868 33.848 25.5549 34.6592H29.1848V34.4609C29.1483 32.9388 28.5741 32.1777 27.4621 32.1777ZM34.1461 34.5908L35.7662 31.6035H36.6617L34.5631 35.2334L36.7437 39H35.8551L34.1529 35.8896L32.4439 39H31.5553L33.7291 35.2334L31.6373 31.6035H32.526L34.1461 34.5908ZM42.6895 39C42.6211 38.763 42.5755 38.4212 42.5527 37.9746C42.3249 38.3438 42.0309 38.6309 41.6709 38.8359C41.3154 39.0365 40.9281 39.1367 40.5088 39.1367C39.8708 39.1367 39.374 38.9567 39.0186 38.5967C38.6631 38.2367 38.4854 37.724 38.4854 37.0586C38.4854 36.334 38.7314 35.7598 39.2236 35.3359C39.7204 34.9121 40.404 34.6979 41.2744 34.6934H42.5459V33.6611C42.5459 33.1325 42.4137 32.7542 42.1494 32.5264C41.8896 32.2939 41.5068 32.1777 41.001 32.1777C40.5316 32.1777 40.1465 32.3145 39.8457 32.5879C39.5449 32.8613 39.3945 33.2145 39.3945 33.6475L38.6357 33.6406C38.6357 33.0345 38.8636 32.5218 39.3193 32.1025C39.7751 31.6787 40.347 31.4668 41.0352 31.4668C41.778 31.4668 42.3408 31.6536 42.7236 32.0273C43.1064 32.401 43.2979 32.9456 43.2979 33.6611V37.291C43.2979 38.0156 43.3639 38.5579 43.4961 38.918V39H42.6895ZM40.6045 38.4053C41.0511 38.4053 41.4453 38.2891 41.7871 38.0566C42.1335 37.8242 42.3864 37.5143 42.5459 37.127V35.3291H41.3428C40.6501 35.3382 40.1283 35.4932 39.7773 35.7939C39.4264 36.0902 39.251 36.4912 39.251 36.9971C39.251 37.9359 39.7021 38.4053 40.6045 38.4053ZM50.809 31.6035V39H50.0502V32.3213H47.5893L47.4799 35.0625C47.4206 36.5117 47.2566 37.5257 46.9877 38.1045C46.7234 38.6787 46.2927 38.9772 45.6957 39H45.3471V38.2549L45.5658 38.248C45.9577 38.2298 46.2357 38.002 46.3998 37.5645C46.5639 37.1224 46.6732 36.3454 46.7279 35.2334L46.8578 31.6035H50.809ZM57.575 31.6035H58.3338V39H57.575V32.9502L54.3143 39H53.5555V31.6035H54.3143V37.6602L57.575 31.6035ZM64.8453 39V31.6035H67.1559C67.9443 31.6035 68.5527 31.7699 68.9811 32.1025C69.4094 32.4352 69.6236 32.9274 69.6236 33.5791C69.6236 33.9482 69.5279 34.2786 69.3365 34.5703C69.1451 34.8574 68.8671 35.0671 68.5025 35.1992C68.9218 35.2904 69.2522 35.5 69.4938 35.8281C69.7398 36.1517 69.8629 36.5254 69.8629 36.9492C69.8629 37.6009 69.6624 38.1045 69.2613 38.46C68.8603 38.8109 68.302 38.9909 67.5865 39H64.8453ZM65.5973 35.6025V38.3027H67.5455C68.0514 38.3027 68.4387 38.1865 68.7076 37.9541C68.9765 37.7171 69.1109 37.3776 69.1109 36.9355C69.1109 36.5254 68.9765 36.2018 68.7076 35.9648C68.4387 35.7233 68.0514 35.6025 67.5455 35.6025H65.5973ZM65.5973 34.9053H67.2037C68.3111 34.9053 68.8648 34.4723 68.8648 33.6064C68.8648 32.7679 68.3294 32.3372 67.2584 32.3145H65.5973V34.9053ZM76.6494 32.3145H74.4209V39H73.6621V32.3145H71.5156V31.6035H76.6494V32.3145ZM78.0629 34.9258C78.0629 33.8594 78.3044 33.0163 78.7875 32.3965C79.2706 31.7767 79.9291 31.4668 80.7631 31.4668C81.6016 31.4668 82.2602 31.7721 82.7387 32.3828C83.2217 32.9935 83.4656 33.8343 83.4701 34.9053V35.6914C83.4701 36.776 83.2263 37.6214 82.7387 38.2275C82.2556 38.8337 81.6016 39.1367 80.7768 39.1367C79.9519 39.1367 79.2979 38.8405 78.8148 38.248C78.3318 37.6556 78.0811 36.8398 78.0629 35.8008V34.9258ZM78.8285 35.6914C78.8285 36.5436 78.9994 37.2135 79.3412 37.7012C79.6876 38.1888 80.1661 38.4326 80.7768 38.4326C81.4011 38.4326 81.8773 38.1979 82.2055 37.7285C82.5381 37.2591 82.7068 36.5869 82.7113 35.7119V34.9258C82.7113 34.0736 82.5381 33.4036 82.1918 32.916C81.8454 32.4238 81.3692 32.1777 80.7631 32.1777C80.1752 32.1777 79.7081 32.417 79.3617 32.8955C79.0154 33.374 78.8376 34.0326 78.8285 34.8711V35.6914ZM90.8719 35.6504C90.8719 36.7897 90.6736 37.6556 90.2771 38.248C89.8807 38.8405 89.2882 39.1367 88.4998 39.1367C87.643 39.1367 87.0027 38.7949 86.5789 38.1113V41.8438H85.827V31.6035H86.5242L86.5584 32.6152C86.9959 31.8496 87.6362 31.4668 88.4793 31.4668C89.2768 31.4668 89.8738 31.7493 90.2703 32.3145C90.6668 32.8796 90.8673 33.7432 90.8719 34.9053V35.6504ZM90.1131 34.96C90.1131 34.012 89.965 33.3148 89.6687 32.8682C89.3771 32.4215 88.9191 32.1982 88.2947 32.1982C87.4926 32.1982 86.9207 32.6061 86.5789 33.4219V37.3184C86.9207 38.0612 87.4972 38.4326 88.3084 38.4326C88.9191 38.4326 89.3702 38.2093 89.6619 37.7627C89.9581 37.3161 90.1085 36.6279 90.1131 35.6982V34.96ZM92.9484 34.9258C92.9484 33.8594 93.19 33.0163 93.673 32.3965C94.1561 31.7767 94.8147 31.4668 95.6486 31.4668C96.4872 31.4668 97.1457 31.7721 97.6242 32.3828C98.1073 32.9935 98.3511 33.8343 98.3557 34.9053V35.6914C98.3557 36.776 98.1119 37.6214 97.6242 38.2275C97.1411 38.8337 96.4872 39.1367 95.6623 39.1367C94.8374 39.1367 94.1835 38.8405 93.7004 38.248C93.2173 37.6556 92.9667 36.8398 92.9484 35.8008V34.9258ZM93.7141 35.6914C93.7141 36.5436 93.885 37.2135 94.2268 37.7012C94.5731 38.1888 95.0516 38.4326 95.6623 38.4326C96.2867 38.4326 96.7629 38.1979 97.091 37.7285C97.4237 37.2591 97.5923 36.5869 97.5969 35.7119V34.9258C97.5969 34.0736 97.4237 33.4036 97.0773 32.916C96.731 32.4238 96.2548 32.1777 95.6486 32.1777C95.0607 32.1777 94.5936 32.417 94.2473 32.8955C93.9009 33.374 93.7232 34.0326 93.7141 34.8711V35.6914ZM104.787 31.6035H105.546V39H104.787V32.9502L101.526 39H100.767V31.6035H101.526V37.6602L104.787 31.6035ZM105.115 28.9375C105.115 29.457 104.937 29.8809 104.582 30.209C104.226 30.5371 103.745 30.7012 103.139 30.7012C102.542 30.7012 102.064 30.5394 101.704 30.2158C101.344 29.8877 101.164 29.4616 101.164 28.9375H101.861C101.861 29.3021 101.968 29.5869 102.182 29.792C102.401 29.9971 102.72 30.0996 103.139 30.0996C103.536 30.0996 103.848 29.9971 104.076 29.792C104.304 29.5869 104.418 29.3021 104.418 28.9375H105.115ZM117.02 35.6504C117.02 36.7897 116.822 37.6556 116.425 38.248C116.029 38.8405 115.436 39.1367 114.648 39.1367C113.791 39.1367 113.151 38.7949 112.727 38.1113V41.8438H111.975V31.6035H112.672L112.706 32.6152C113.144 31.8496 113.784 31.4668 114.627 31.4668C115.425 31.4668 116.022 31.7493 116.418 32.3145C116.815 32.8796 117.015 33.7432 117.02 34.9053V35.6504ZM116.261 34.96C116.261 34.012 116.113 33.3148 115.817 32.8682C115.525 32.4215 115.067 32.1982 114.443 32.1982C113.641 32.1982 113.069 32.6061 112.727 33.4219V37.3184C113.069 38.0612 113.645 38.4326 114.456 38.4326C115.067 38.4326 115.518 38.2093 115.81 37.7627C116.106 37.3161 116.257 36.6279 116.261 35.6982V34.96ZM123.294 39C123.225 38.763 123.18 38.4212 123.157 37.9746C122.929 38.3438 122.635 38.6309 122.275 38.8359C121.92 39.0365 121.532 39.1367 121.113 39.1367C120.475 39.1367 119.978 38.9567 119.623 38.5967C119.267 38.2367 119.09 37.724 119.09 37.0586C119.09 36.334 119.336 35.7598 119.828 35.3359C120.325 34.9121 121.008 34.6979 121.879 34.6934H123.15V33.6611C123.15 33.1325 123.018 32.7542 122.754 32.5264C122.494 32.2939 122.111 32.1777 121.605 32.1777C121.136 32.1777 120.751 32.3145 120.45 32.5879C120.149 32.8613 119.999 33.2145 119.999 33.6475L119.24 33.6406C119.24 33.0345 119.468 32.5218 119.924 32.1025C120.379 31.6787 120.951 31.4668 121.639 31.4668C122.382 31.4668 122.945 31.6536 123.328 32.0273C123.711 32.401 123.902 32.9456 123.902 33.6611V37.291C123.902 38.0156 123.968 38.5579 124.1 38.918V39H123.294ZM121.209 38.4053C121.655 38.4053 122.05 38.2891 122.391 38.0566C122.738 37.8242 122.991 37.5143 123.15 37.127V35.3291H121.947C121.254 35.3382 120.733 35.4932 120.382 35.7939C120.031 36.0902 119.855 36.4912 119.855 36.9971C119.855 37.9359 120.306 38.4053 121.209 38.4053ZM130.176 33.5654C130.176 33.1234 130.042 32.7816 129.773 32.54C129.508 32.2985 129.139 32.1777 128.665 32.1777C128.228 32.1777 127.859 32.3167 127.558 32.5947C127.257 32.8682 127.107 33.2054 127.107 33.6064H126.355C126.355 32.9867 126.578 32.4762 127.025 32.0752C127.471 31.6742 128.018 31.4736 128.665 31.4736C129.381 31.4736 129.937 31.6582 130.333 32.0273C130.734 32.3919 130.935 32.9069 130.935 33.5723C130.935 33.9277 130.844 34.249 130.661 34.5361C130.479 34.8232 130.215 35.0465 129.868 35.2061C130.657 35.4795 131.051 36.0674 131.051 36.9697C131.051 37.6305 130.835 38.1569 130.402 38.5488C129.969 38.9362 129.39 39.1299 128.665 39.1299C127.968 39.1299 127.391 38.9225 126.936 38.5078C126.48 38.0931 126.252 37.5508 126.252 36.8809H127.011C127.011 37.3184 127.168 37.6875 127.483 37.9883C127.802 38.2845 128.196 38.4326 128.665 38.4326C129.18 38.4326 129.579 38.3027 129.862 38.043C130.144 37.7786 130.285 37.4255 130.285 36.9834C130.285 36.4912 130.153 36.1357 129.889 35.917C129.629 35.6982 129.233 35.5889 128.699 35.5889H127.729V34.8643H128.775C129.709 34.846 130.176 34.4131 130.176 33.5654Z" fill="#242121"/>
</svg>
