<svg width="346" height="43" viewBox="0 0 346 43" fill="none" xmlns="http://www.w3.org/2000/svg">
<path d="M311.191 14.7109C310.363 15.7656 309.395 16.293 308.285 16.293C307.043 16.293 306.055 15.7695 305.32 14.7227C304.586 13.6758 304.219 12.3047 304.219 10.6094C304.219 8.82812 304.617 7.39844 305.414 6.32031C306.219 5.24219 307.312 4.70312 308.695 4.70312C310.133 4.70312 311.254 5.32812 312.059 6.57812C312.871 7.82031 313.277 9.54297 313.277 11.7461V12.3906C313.277 14.2812 313.133 15.8125 312.844 16.9844C312.562 18.1562 312.145 19.1016 311.59 19.8203C311.035 20.5391 310.328 21.0859 309.469 21.4609C308.609 21.8281 307.535 22.0117 306.246 22.0117V20.1836H306.609C308.078 20.1523 309.191 19.707 309.949 18.8477C310.715 17.9805 311.129 16.6016 311.191 14.7109ZM308.637 14.5C309.137 14.5 309.625 14.293 310.102 13.8789C310.578 13.457 310.949 12.9062 311.215 12.2266V11.3125C311.215 9.89844 310.969 8.74609 310.477 7.85547C309.984 6.95703 309.391 6.50781 308.695 6.50781C307.945 6.50781 307.348 6.87891 306.902 7.62109C306.465 8.35547 306.246 9.3125 306.246 10.4922C306.246 11.6719 306.461 12.6367 306.891 13.3867C307.32 14.1289 307.902 14.5 308.637 14.5ZM323.651 14.7109C322.823 15.7656 321.854 16.293 320.745 16.293C319.502 16.293 318.514 15.7695 317.78 14.7227C317.045 13.6758 316.678 12.3047 316.678 10.6094C316.678 8.82812 317.077 7.39844 317.873 6.32031C318.678 5.24219 319.772 4.70312 321.155 4.70312C322.592 4.70312 323.713 5.32812 324.518 6.57812C325.33 7.82031 325.737 9.54297 325.737 11.7461V12.3906C325.737 14.2812 325.592 15.8125 325.303 16.9844C325.022 18.1562 324.604 19.1016 324.049 19.8203C323.495 20.5391 322.788 21.0859 321.928 21.4609C321.069 21.8281 319.995 22.0117 318.705 22.0117V20.1836H319.069C320.538 20.1523 321.651 19.707 322.409 18.8477C323.174 17.9805 323.588 16.6016 323.651 14.7109ZM321.096 14.5C321.596 14.5 322.084 14.293 322.561 13.8789C323.038 13.457 323.409 12.9062 323.674 12.2266V11.3125C323.674 9.89844 323.428 8.74609 322.936 7.85547C322.444 6.95703 321.85 6.50781 321.155 6.50781C320.405 6.50781 319.807 6.87891 319.362 7.62109C318.924 8.35547 318.705 9.3125 318.705 10.4922C318.705 11.6719 318.92 12.6367 319.35 13.3867C319.78 14.1289 320.362 14.5 321.096 14.5ZM329.173 8.21875C329.173 7.20312 329.446 6.36328 329.993 5.69922C330.548 5.02734 331.266 4.69141 332.149 4.69141C333.024 4.69141 333.739 5.01953 334.294 5.67578C334.856 6.33203 335.138 7.19531 335.138 8.26562V9.12109C335.138 10.1445 334.86 10.9844 334.305 11.6406C333.759 12.2969 333.048 12.625 332.173 12.625C331.298 12.625 330.579 12.2969 330.016 11.6406C329.454 10.9844 329.173 10.1211 329.173 9.05078V8.21875ZM330.684 9.12109C330.684 9.74609 330.821 10.2539 331.095 10.6445C331.368 11.0273 331.727 11.2188 332.173 11.2188C332.602 11.2188 332.95 11.0312 333.216 10.6562C333.489 10.2734 333.626 9.74609 333.626 9.07422V8.21875C333.626 7.58594 333.489 7.07813 333.216 6.69531C332.942 6.30469 332.587 6.10938 332.149 6.10938C331.704 6.10938 331.348 6.30469 331.083 6.69531C330.817 7.08594 330.684 7.60547 330.684 8.25391V9.12109ZM336.063 17.8164C336.063 16.793 336.341 15.9531 336.895 15.2969C337.45 14.6328 338.165 14.3008 339.04 14.3008C339.915 14.3008 340.634 14.6289 341.196 15.2852C341.759 15.9414 342.04 16.8125 342.04 17.8984V18.7305C342.04 19.7617 341.759 20.6055 341.196 21.2617C340.634 21.918 339.923 22.2461 339.063 22.2461C338.188 22.2461 337.47 21.918 336.907 21.2617C336.345 20.6055 336.063 19.7422 336.063 18.6719V17.8164ZM337.575 18.7305C337.575 19.3633 337.712 19.875 337.985 20.2656C338.259 20.6484 338.618 20.8398 339.063 20.8398C339.501 20.8398 339.852 20.6445 340.118 20.2539C340.384 19.8633 340.516 19.3438 340.516 18.6953V17.8164C340.516 17.1836 340.38 16.6758 340.106 16.293C339.833 15.9102 339.477 15.7188 339.04 15.7188C338.61 15.7188 338.259 15.9102 337.985 16.293C337.712 16.668 337.575 17.1875 337.575 17.8516V18.7305ZM332.595 20.7109L331.458 19.9375L338.454 6.60156L339.602 7.375L332.595 20.7109Z" fill="#242121"/>
<path d="M285.099 9.23264C280.303 12.299 278.645 15.0469 268.37 16.5457C255.723 18.392 243.135 13.9867 236.902 10.3747C234.752 9.12805 229.536 8.88833 227.528 10.3747C218.724 16.89 199.227 15.299 190.908 9.01111C188.862 7.46431 181.945 7.74041 181.096 9.51004C176.421 19.2573 155.431 20.2889 141.373 13.2241C142.908 11.3219 134.904 10.0272 132.722 11.889C120.921 21.9605 97.8831 20.8353 84.5116 11.8475C82.1909 10.2877 76.9919 10.8347 75.4926 12.3061C64.6255 22.9759 47.6995 17.9002 38.2013 10.556C36.3515 9.1248 31.0756 9.62047 29.9604 10.975C24.7697 17.283 16.2182 18.4608 1.8116 20.0927C-0.901436 20.4007 -0.482377 22.2327 2.50113 22.078C19.0081 21.2218 28.0237 20.0791 34.7704 15.2958C48.6311 23.7177 67.9813 25.438 80.9654 16.5762C97.8013 24.7767 124.846 25.7115 138.246 15.9552C153.131 23.8334 178.092 23.4455 188.088 14.8605C200.983 20.7794 219.753 21.611 232.738 14.9872C252.064 22.5477 291.587 24.2401 292.996 10.0668C293.172 8.37641 287.221 7.87554 285.099 9.23264Z" fill="#00B2A0"/>
<path d="M7.41016 38.2754H8.33984L8.33301 41.4131H7.54688V39H1.30566V41.4131H0.519531V38.2754H1.10059C1.49251 37.7969 1.82064 37.0518 2.08496 36.04C2.35384 35.0238 2.51335 33.889 2.56348 32.6357L2.71387 29.0469H7.41016V38.2754ZM1.96191 38.2754H6.63086V29.7852H3.46582L3.34961 32.6426C3.29492 33.8503 3.14453 34.9486 2.89844 35.9375C2.6569 36.9219 2.34473 37.7012 1.96191 38.2754ZM10.1703 34.9258C10.1703 33.8594 10.4118 33.0163 10.8949 32.3965C11.378 31.7767 12.0365 31.4668 12.8705 31.4668C13.709 31.4668 14.3676 31.7721 14.8461 32.3828C15.3292 32.9935 15.573 33.8343 15.5775 34.9053V35.6914C15.5775 36.776 15.3337 37.6214 14.8461 38.2275C14.363 38.8337 13.709 39.1367 12.8842 39.1367C12.0593 39.1367 11.4053 38.8405 10.9223 38.248C10.4392 37.6556 10.1885 36.8398 10.1703 35.8008V34.9258ZM10.9359 35.6914C10.9359 36.5436 11.1068 37.2135 11.4486 37.7012C11.795 38.1888 12.2735 38.4326 12.8842 38.4326C13.5085 38.4326 13.9848 38.1979 14.3129 37.7285C14.6456 37.2591 14.8142 36.5869 14.8188 35.7119V34.9258C14.8188 34.0736 14.6456 33.4036 14.2992 32.916C13.9529 32.4238 13.4766 32.1777 12.8705 32.1777C12.2826 32.1777 11.8155 32.417 11.4691 32.8955C11.1228 33.374 10.9451 34.0326 10.9359 34.8711V35.6914ZM18.0164 39V31.6035H20.327C21.1154 31.6035 21.7238 31.7699 22.1521 32.1025C22.5805 32.4352 22.7947 32.9274 22.7947 33.5791C22.7947 33.9482 22.699 34.2786 22.5076 34.5703C22.3162 34.8574 22.0382 35.0671 21.6736 35.1992C22.0929 35.2904 22.4233 35.5 22.6648 35.8281C22.9109 36.1517 23.034 36.5254 23.034 36.9492C23.034 37.6009 22.8335 38.1045 22.4324 38.46C22.0314 38.8109 21.4731 38.9909 20.7576 39H18.0164ZM18.7684 35.6025V38.3027H20.7166C21.2225 38.3027 21.6098 38.1865 21.8787 37.9541C22.1476 37.7171 22.282 37.3776 22.282 36.9355C22.282 36.5254 22.1476 36.2018 21.8787 35.9648C21.6098 35.7233 21.2225 35.6025 20.7166 35.6025H18.7684ZM18.7684 34.9053H20.3748C21.4822 34.9053 22.0359 34.4723 22.0359 33.6064C22.0359 32.7679 21.5005 32.3372 20.4295 32.3145H18.7684V34.9053ZM25.1242 34.9258C25.1242 33.8594 25.3658 33.0163 25.8488 32.3965C26.3319 31.7767 26.9904 31.4668 27.8244 31.4668C28.663 31.4668 29.3215 31.7721 29.8 32.3828C30.2831 32.9935 30.5269 33.8343 30.5314 34.9053V35.6914C30.5314 36.776 30.2876 37.6214 29.8 38.2275C29.3169 38.8337 28.663 39.1367 27.8381 39.1367C27.0132 39.1367 26.3592 38.8405 25.8762 38.248C25.3931 37.6556 25.1424 36.8398 25.1242 35.8008V34.9258ZM25.8898 35.6914C25.8898 36.5436 26.0607 37.2135 26.4025 37.7012C26.7489 38.1888 27.2274 38.4326 27.8381 38.4326C28.4624 38.4326 28.9387 38.1979 29.2668 37.7285C29.5995 37.2591 29.7681 36.5869 29.7727 35.7119V34.9258C29.7727 34.0736 29.5995 33.4036 29.2531 32.916C28.9068 32.4238 28.4305 32.1777 27.8244 32.1777C27.2365 32.1777 26.7694 32.417 26.423 32.8955C26.0767 33.374 25.899 34.0326 25.8898 34.8711V35.6914ZM37.6187 31.6035V39H36.86V32.3213H34.399L34.2896 35.0625C34.2304 36.5117 34.0663 37.5257 33.7975 38.1045C33.5331 38.6787 33.1025 38.9772 32.5055 39H32.1568V38.2549L32.3756 38.248C32.7675 38.2298 33.0455 38.002 33.2096 37.5645C33.3736 37.1224 33.483 36.3454 33.5377 35.2334L33.6676 31.6035H37.6187ZM41.1445 34.2832H42.874C43.5758 34.2832 44.1341 34.4928 44.5488 34.9121C44.9635 35.3314 45.1709 35.9033 45.1709 36.6279C45.1709 37.348 44.9635 37.9245 44.5488 38.3574C44.1387 38.7858 43.5804 39 42.874 39H40.3926V31.6035H41.1445V34.2832ZM41.1445 34.9941V38.2959H42.8877C43.3662 38.2959 43.7399 38.1478 44.0088 37.8516C44.2777 37.5553 44.4121 37.1543 44.4121 36.6484C44.4121 36.1471 44.2754 35.7461 44.002 35.4453C43.7285 35.1445 43.3594 34.9941 42.8945 34.9941H41.1445ZM52.3334 39H51.5746V35.6162H48.3207V39H47.5551V31.6035H48.3207V34.9121H51.5746V31.6035H52.3334V39ZM55.8523 34.2832H57.5818C58.2837 34.2832 58.8419 34.4928 59.2566 34.9121C59.6714 35.3314 59.8787 35.9033 59.8787 36.6279C59.8787 37.348 59.6714 37.9245 59.2566 38.3574C58.8465 38.7858 58.2882 39 57.5818 39H55.1004V31.6035H55.8523V34.2832ZM55.8523 34.9941V38.2959H57.5955C58.074 38.2959 58.4477 38.1478 58.7166 37.8516C58.9855 37.5553 59.1199 37.1543 59.1199 36.6484C59.1199 36.1471 58.9832 35.7461 58.7098 35.4453C58.4363 35.1445 58.0672 34.9941 57.6023 34.9941H55.8523ZM62.0047 39H61.2459V31.6035H62.0047V39ZM66.7609 34.5908L68.3811 31.6035H69.2766L67.1779 35.2334L69.3586 39H68.4699L66.7678 35.8896L65.0588 39H64.1701L66.3439 35.2334L64.2521 31.6035H65.1408L66.7609 34.5908ZM76.8682 35.623H75.959V39H75.1934V31.6035H75.959V34.8779H76.8545L79.0967 31.6035H80.04L77.4902 35.1787L80.3066 39H79.3154L76.8682 35.623ZM86.9906 31.6035V39H86.2318V32.3213H83.7709L83.6615 35.0625C83.6023 36.5117 83.4382 37.5257 83.1693 38.1045C82.905 38.6787 82.4743 38.9772 81.8773 39H81.5287V38.2549L81.7475 38.248C82.1394 38.2298 82.4174 38.002 82.5814 37.5645C82.7455 37.1224 82.8549 36.3454 82.9096 35.2334L83.0395 31.6035H86.9906ZM93.7566 31.6035H94.5154V39H93.7566V32.9502L90.4959 39H89.7371V31.6035H90.4959V37.6602L93.7566 31.6035ZM99.6408 39.1367C98.7704 39.1367 98.0891 38.8519 97.5969 38.2822C97.1047 37.7126 96.854 36.9014 96.8449 35.8486V34.9463C96.8449 33.8617 97.0819 33.0117 97.5559 32.3965C98.0298 31.7767 98.6815 31.4668 99.5109 31.4668C100.313 31.4668 100.924 31.7288 101.343 32.2529C101.767 32.777 101.983 33.5791 101.992 34.6592V35.3701H97.5969V35.7871C97.5969 36.6348 97.7769 37.2887 98.1369 37.749C98.5015 38.2093 99.0142 38.4395 99.675 38.4395C100.404 38.4395 100.994 38.1729 101.446 37.6396L101.842 38.1455C101.359 38.8063 100.625 39.1367 99.6408 39.1367ZM99.5109 32.1777C98.9139 32.1777 98.4536 32.3896 98.1301 32.8135C97.8111 33.2327 97.6356 33.848 97.6037 34.6592H101.234V34.4609C101.197 32.9388 100.623 32.1777 99.5109 32.1777ZM109.046 39H108.287V35.6162H105.033V39H104.267V31.6035H105.033V34.9121H108.287V31.6035H109.046V39ZM116.222 32.3145H113.993V39H113.234V32.3145H111.088V31.6035H116.222V32.3145ZM117.635 34.9258C117.635 33.8594 117.877 33.0163 118.36 32.3965C118.843 31.7767 119.501 31.4668 120.335 31.4668C121.174 31.4668 121.832 31.7721 122.311 32.3828C122.794 32.9935 123.038 33.8343 123.042 34.9053V35.6914C123.042 36.776 122.799 37.6214 122.311 38.2275C121.828 38.8337 121.174 39.1367 120.349 39.1367C119.524 39.1367 118.87 38.8405 118.387 38.248C117.904 37.6556 117.653 36.8398 117.635 35.8008V34.9258ZM118.401 35.6914C118.401 36.5436 118.572 37.2135 118.913 37.7012C119.26 38.1888 119.738 38.4326 120.349 38.4326C120.973 38.4326 121.45 38.1979 121.778 37.7285C122.11 37.2591 122.279 36.5869 122.284 35.7119V34.9258C122.284 34.0736 122.11 33.4036 121.764 32.916C121.418 32.4238 120.941 32.1777 120.335 32.1777C119.747 32.1777 119.28 32.417 118.934 32.8955C118.588 33.374 118.41 34.0326 118.401 34.8711V35.6914ZM125.481 39V31.6035H127.792C128.58 31.6035 129.189 31.7699 129.617 32.1025C130.045 32.4352 130.26 32.9274 130.26 33.5791C130.26 33.9482 130.164 34.2786 129.972 34.5703C129.781 34.8574 129.503 35.0671 129.138 35.1992C129.558 35.2904 129.888 35.5 130.13 35.8281C130.376 36.1517 130.499 36.5254 130.499 36.9492C130.499 37.6009 130.298 38.1045 129.897 38.46C129.496 38.8109 128.938 38.9909 128.222 39H125.481ZM126.233 35.6025V38.3027H128.181C128.687 38.3027 129.075 38.1865 129.344 37.9541C129.612 37.7171 129.747 37.3776 129.747 36.9355C129.747 36.5254 129.612 36.2018 129.344 35.9648C129.075 35.7233 128.687 35.6025 128.181 35.6025H126.233ZM126.233 34.9053H127.84C128.947 34.9053 129.501 34.4723 129.501 33.6064C129.501 32.7679 128.965 32.3372 127.894 32.3145H126.233V34.9053Z" fill="#242121"/>
</svg>
